<svg xmlns="http://www.w3.org/2000/svg" viewBox="0 0 32 32" width="32" height="32">
  <!-- Brutalist offset shadow (Neon Blue) -->
  <rect x="4" y="4" width="24" height="24" rx="4" fill="#1E3AFF" />
  <!-- Brutalist foreground container (Deep Black with Neon Green border) -->
  <rect x="2" y="2" width="24" height="24" rx="4" fill="#0A0A0A" stroke="#39FF6A" stroke-width="2" />
  
  <!-- "C" (Neon Green) -->
  <path d="M 6 8 H 13 V 11 H 9 V 17 H 13 V 20 H 6 Z" fill="#39FF6A" />
  
  <!-- "B" (White) -->
  <path d="M 15 8 H 20 C 22.5 8 23 10 23 11 C 23 12.5 22 13.5 20.5 13.5 C 22.5 13.5 23 15 23 17 C 23 19 22.5 20 20 20 H 15 Z M 17 10 H 19.5 C 20.5 10 21 10.5 21 11 C 21 11.5 20.5 12 19.5 12 H 17 Z M 17 15 H 19.5 C 20.5 15 21 15.5 21 16.5 C 21 17.5 20.5 18 19.5 18 H 17 Z" fill="#FFFFFF" fill-rule="evenodd" />
</svg>
